<svg height='100px' width='100px'  fill="#ed5f74" xmlns="http://www.w3.org/2000/svg" data-name="Layer 1" viewBox="0 0 48 48" x="0px" y="0px"><title>email</title><path d="M43,48H5a5,5,0,0,1-2.39-.63,1,1,0,0,1,0-1.78L46.56,24.1A1,1,0,0,1,48,25V43A5,5,0,0,1,43,48ZM6.37,46H43a3,3,0,0,0,3-3V26.6Z"></path><path d="M3.09,47.49a1,1,0,0,1-.48-.12A5,5,0,0,1,0,43V25a1,1,0,0,1,1.44-.9l23,11.26a1,1,0,0,1,0,1.8L3.53,47.39A1,1,0,0,1,3.09,47.49ZM2,26.6V43a3,3,0,0,0,1.16,2.34l18.57-9.08Z"></path><path d="M24,37.26a1,1,0,0,1-.44-.1l-19-9.3A1,1,0,0,1,4,27V5A5,5,0,0,1,9,0H37a1,1,0,0,1,.71.29l6,6A1,1,0,0,1,44,7V27a1,1,0,0,1-.56.9l-19,9.3A1,1,0,0,1,24,37.26ZM6,26.34l18,8.81,18-8.81V7.41L36.59,2H9A3,3,0,0,0,6,5Z"></path><path d="M5,28a1,1,0,0,1-.45-.11l-4-2a1,1,0,0,1-.15-1.7l4-3A1,1,0,0,1,6,22v5a1,1,0,0,1-1,1ZM2.9,24.83l1.1.55V24Z"></path><path d="M43,28a1,1,0,0,1-1-1V22a1,1,0,0,1,1.59-.8l4,3a1,1,0,0,1-.15,1.7l-4,2A1,1,0,0,1,43,28Zm1-4v1.36l1.1-.55Z"></path><path d="M43,8H37a1,1,0,0,1-1-1V1A1,1,0,0,1,37.71.29l6,6A1,1,0,0,1,43,8ZM38,6h2.59L38,3.41Z"></path><path d="M24,22a4,4,0,1,1,4-4A4,4,0,0,1,24,22Zm0-6a2,2,0,1,0,2,2A2,2,0,0,0,24,16Z"></path><path d="M24,26a8,8,0,1,1,8-8v1a3,3,0,0,1-6,0V18a1,1,0,0,1,2,0v1a1,1,0,0,0,2,0V18a6,6,0,1,0-6,6,1,1,0,0,1,0,2Z"></path></svg>